HIERARCHY
ROOT Pelvis
{
	OFFSET 0.000000 0.000000 0.000000
	CHANNELS 6 Xposition Yposition Zposition Xrotation Yrotation Zrotation
	JOINT LeftUpLeg_virtual
	{
		OFFSET 0.000000 0.000000 0.000000
		CHANNELS 3 Xrotation Yrotation Zrotation
		JOINT LeftUpLeg
		{
			OFFSET 18.735201 -5.666702 -4.541200
			CHANNELS 3 Xrotation Yrotation Zrotation
			JOINT LeftLeg
			{
				OFFSET -0.021200 -31.938179 0.493100
				CHANNELS 3 Xrotation Yrotation Zrotation
				JOINT LeftFoot
				{
					OFFSET 0.021200 -31.938179 -4.336299
					CHANNELS 3 Xrotation Yrotation Zrotation
					JOINT LeftToeBase
					{
						OFFSET 0.943001 -26.722000 15.023500
						CHANNELS 3 Xrotation Yrotation Zrotation
						End Site
						{
							OFFSET 0 0 0
						}
					}
				}
			}
		}
	}
	JOINT RightUpLeg_virtual
	{
		OFFSET 0.000000 0.000000 0.000000
		CHANNELS 3 Xrotation Yrotation Zrotation
		JOINT RightUpLeg
		{
			OFFSET -18.735201 -5.666702 -4.541200
			CHANNELS 3 Xrotation Yrotation Zrotation
			JOINT RightLeg
			{
				OFFSET 0.018946 -31.938133 0.493100
				CHANNELS 3 Xrotation Yrotation Zrotation
				JOINT RightFoot
				{
					OFFSET -0.018946 -31.938126 -4.336299
					CHANNELS 3 Xrotation Yrotation Zrotation
					JOINT RightToeBase
					{
						OFFSET -0.943001 -26.722004 15.023500
						CHANNELS 3 Xrotation Yrotation Zrotation
						End Site
						{
							OFFSET 0 0 0
						}
					}
				}
			}
		}
	}
	JOINT Hips_virtual
	{
		OFFSET 0.000000 0.000000 0.000000
		CHANNELS 3 Xrotation Yrotation Zrotation
		JOINT Hips
		{
			OFFSET -0.000000 -0.000000 -0.000000
			CHANNELS 3 Xrotation Yrotation Zrotation
			JOINT Spine
			{
				OFFSET 0.000000 10.199997 -0.299500
				CHANNELS 3 Xrotation Yrotation Zrotation
				JOINT Spine1
				{
					OFFSET 0.000000 11.900002 -1.516600
					CHANNELS 3 Xrotation Yrotation Zrotation
					JOINT Spine2
					{
						OFFSET 0.000000 13.600006 -2.842500
						CHANNELS 3 Xrotation Yrotation Zrotation
						JOINT Neck_virtual
						{
							OFFSET 0.000000 0.000000 0.000000
							CHANNELS 3 Xrotation Yrotation Zrotation
							JOINT Neck
							{
								OFFSET 0.000000 9.624100 -2.890100
								CHANNELS 3 Xrotation Yrotation Zrotation
								JOINT Head
								{
									OFFSET 0.000000 14.068802 -1.351900
									CHANNELS 3 Xrotation Yrotation Zrotation
									End Site
									{
										OFFSET 0 0 0
									}
								}
							}
						}
						JOINT LeftShoulder_virtual
						{
							OFFSET 0.000000 0.000000 0.000000
							CHANNELS 3 Xrotation Yrotation Zrotation
							JOINT LeftShoulder
							{
								OFFSET 15.263000 10.923401 -0.547700
								CHANNELS 3 Xrotation Yrotation Zrotation
								JOINT LeftArm
								{
									OFFSET 25.438599 -2.830597 -13.032500
									CHANNELS 3 Xrotation Yrotation Zrotation
									JOINT LeftForeArm
									{
										OFFSET 29.960503 0.000000 0.000000
										CHANNELS 3 Xrotation Yrotation Zrotation
										JOINT LeftHand
										{
											OFFSET 27.849251 0.000000 0.000000
											CHANNELS 3 Xrotation Yrotation Zrotation
											End Site
											{
												OFFSET 0 0 0
											}
										}
									}
								}
							}
						}
						JOINT RightShoulder_virtual
						{
							OFFSET 0.000000 0.000000 0.000000
							CHANNELS 3 Xrotation Yrotation Zrotation
							JOINT RightShoulder
							{
								OFFSET -15.263000 10.923401 -0.547700
								CHANNELS 3 Xrotation Yrotation Zrotation
								JOINT RightArm
								{
									OFFSET -25.438599 -2.830597 -13.032500
									CHANNELS 3 Xrotation Yrotation Zrotation
									JOINT RightForeArm
									{
										OFFSET -29.960503 0.000000 0.000000
										CHANNELS 3 Xrotation Yrotation Zrotation
										JOINT RightHand
										{
											OFFSET -27.849251 0.000000 0.000000
											CHANNELS 3 Xrotation Yrotation Zrotation
											End Site
											{
												OFFSET 0 0 0
											}
										}
									}
								}
							}
						}
					}
				}
			}
		}
	}
}
MOTION
Frames: 6
Frame Time: 0.03333333
-0.237513 94.503540 2.487447 0.000000 0.000000 0.000000 14.935416 -7.393173 -1.585956 -21.116718 11.365467 13.391977 29.420299 2.771676 -0.779716 -17.090991 3.541375 -4.989560 0.000000 0.000000 0.000000 7.948450 1.486542 2.710071 -19.926735 -5.516912 -11.840684 30.717311 -1.942345 -1.184917 -18.617474 -5.298328 7.608674 0.000000 0.000000 0.000000 0.424584 -0.527546 1.855284 -1.532376 14.516160 4.860223 7.406585 -0.618680 3.047037 2.411208 -0.642715 2.302866 0.000000 0.000000 0.000000 2.930100 -0.660569 1.525696 -0.036270 -0.109873 0.561822 0.000000 0.000000 0.000000 3.023035 -0.374811 0.319210 0.810396 -2.674221 -8.868980 -12.124883 -11.550526 -41.945756 2.129800 -47.913832 -0.663895 0.000000 0.000000 0.000000 4.110652 0.752862 1.515370 2.014372 12.651588 8.285978 -23.468376 29.774400 55.783135 -36.237261 87.172222 38.119897 0.000000 0.000000 0.000000 
-0.204513 94.498192 2.471337 0.000000 0.000000 0.000000 14.943143 -7.449675 -1.584019 -21.105148 11.353954 13.383100 29.302789 2.807495 -0.796685 -17.181394 3.589824 -4.997714 0.000000 0.000000 0.000000 8.009132 1.779091 2.683511 -19.811724 -5.444165 -11.824110 30.708759 -2.047797 -1.191726 -18.614487 -5.394907 7.529713 0.000000 0.000000 0.000000 0.370525 -0.700388 1.854271 -1.416383 14.513491 4.856428 7.426255 -0.712247 3.009522 2.437210 -0.695820 2.272552 0.000000 0.000000 0.000000 2.977861 -0.703114 1.488776 -0.012779 -0.105421 0.541187 0.000000 0.000000 0.000000 3.038231 -0.427003 0.324207 0.848321 -2.642826 -8.863923 -12.103771 -11.492377 -41.931501 2.115874 -47.834274 -0.655495 0.000000 0.000000 0.000000 4.170834 0.742015 1.526923 2.082599 12.688183 8.353872 -22.521710 30.715292 55.685685 -42.276597 88.000512 44.408879 0.000000 0.000000 0.000000 
-0.157904 94.492020 2.451722 0.000000 0.000000 0.000000 14.949327 -7.503600 -1.586874 -21.090757 11.343502 13.367655 29.177550 2.845526 -0.810689 -17.279016 3.639249 -5.000677 0.000000 0.000000 0.000000 8.068660 2.075909 2.656565 -19.695662 -5.369856 -11.806037 30.699071 -2.153324 -1.197144 -18.610915 -5.492232 7.452225 0.000000 0.000000 0.000000 0.319506 -0.861425 1.850969 -1.303718 14.499957 4.845791 7.452706 -0.806056 2.964983 2.467749 -0.748350 2.239398 0.000000 0.000000 0.000000 3.024332 -0.742952 1.449159 0.012897 -0.103018 0.521464 0.000000 0.000000 0.000000 3.056601 -0.475956 0.327935 0.886951 -2.630082 -8.838303 -12.105862 -11.467863 -41.918063 2.102478 -47.774745 -0.655431 0.000000 0.000000 0.000000 4.227997 0.733582 1.533174 2.151327 12.749474 8.378620 -21.618184 31.736423 55.466023 -55.047585 88.765999 57.398608 0.000000 0.000000 0.000000 
-0.098383 94.484589 2.429897 0.000000 0.000000 0.000000 14.953862 -7.555379 -1.594235 -21.073635 11.333892 13.345858 29.045031 2.887178 -0.821615 -17.383586 3.690952 -4.997440 0.000000 0.000000 0.000000 8.128081 2.374463 2.630245 -19.577265 -5.295035 -11.785683 30.686858 -2.257193 -1.201763 -18.607710 -5.588420 7.376304 0.000000 0.000000 0.000000 0.271107 -1.009197 1.845281 -1.197741 14.474812 4.828571 7.486990 -0.897968 2.913648 2.503351 -0.799116 2.203634 0.000000 0.000000 0.000000 3.069555 -0.779240 1.407526 0.040756 -0.102521 0.503129 0.000000 0.000000 0.000000 3.078378 -0.520793 0.330473 0.926120 -2.635454 -8.792522 -12.131209 -11.477497 -41.905239 2.089673 -47.736824 -0.662962 0.000000 0.000000 0.000000 4.282769 0.729221 1.534885 2.219775 12.839983 8.363863 -20.769255 32.825633 55.120108 -92.569567 89.325651 95.103786 0.000000 0.000000 0.000000 
-0.027027 94.475517 2.406801 0.000000 0.000000 0.000000 14.956637 -7.605403 -1.605956 -21.053957 11.324962 13.317826 28.905760 2.934312 -0.829520 -17.494754 3.746774 -4.986996 0.000000 0.000000 0.000000 8.188365 2.672494 2.605421 -19.455338 -5.220634 -11.762382 30.671258 -2.357227 -1.206222 -18.605411 -5.681110 7.302273 0.000000 0.000000 0.000000 0.224998 -1.142555 1.837188 -1.101291 14.436477 4.805693 7.529836 -0.985561 2.855706 2.544388 -0.846768 2.165431 0.000000 0.000000 0.000000 3.113386 -0.811011 1.364587 0.070675 -0.103705 0.486642 0.000000 0.000000 0.000000 3.103556 -0.560648 0.331827 0.965609 -2.658096 -8.727574 -12.179622 -11.521167 -41.893512 2.077338 -47.721688 -0.677545 0.000000 0.000000 0.000000 4.336029 0.730555 1.532740 2.287593 12.964029 8.313407 -19.982164 33.971008 54.643832 -155.289965 89.202790 157.967263 0.000000 0.000000 0.000000 
0.054809 94.464638 2.382982 0.000000 0.000000 0.000000 14.957583 -7.654235 -1.621956 -21.031898 11.316554 13.283585 28.760352 2.988996 -0.834552 -17.612056 3.808793 -4.968362 0.000000 0.000000 0.000000 8.250221 2.967822 2.582813 -19.328991 -5.147498 -11.735619 30.652089 -2.451070 -1.211127 -18.604049 -5.767752 7.230639 0.000000 0.000000 0.000000 0.181009 -1.260870 1.826758 -1.016460 14.382370 4.778597 7.581503 -1.066325 2.791253 2.590993 -0.889906 2.124867 0.000000 0.000000 0.000000 3.155509 -0.837219 1.321064 0.102404 -0.106267 0.472416 0.000000 0.000000 0.000000 3.131913 -0.594745 0.331948 1.005130 -2.696983 -8.644970 -12.250661 -11.598095 -41.883990 2.065171 -47.730202 -0.698863 0.000000 0.000000 0.000000 4.389001 0.739083 1.527282 2.355013 13.125471 8.230895 -19.259098 35.161875 54.034129 179.648865 88.632551 -176.871109 0.000000 0.000000 0.000000 
